<svg xmlns="http://www.w3.org/2000/svg" viewBox="0 0 512 512"><rect width="512" height="512" rx="112" fill="#0e0f12"/><g transform="translate(71.7,138.6) scale(0.72)" fill="#5eead4"><rect x="9.7" y="23.8" width="19.5" height="59.2" rx="9.8"/><rect x="40.1" y="0.0" width="19.5" height="140.1" rx="9.8"/><rect x="71.1" y="17.3" width="19.5" height="197.1" rx="9.8"/><rect x="102.2" y="47.7" width="19.5" height="219.5" rx="9.8"/><rect x="133.2" y="88.8" width="18.8" height="236.9" rx="9.4"/><rect x="163.6" y="145.2" width="19.5" height="238.3" rx="9.8"/><rect x="194.6" y="199.3" width="19.5" height="231.8" rx="9.8"/><rect x="225.7" y="255.6" width="19.5" height="214.5" rx="9.8"/><rect x="250.2" y="318.5" width="11.6" height="193.5" rx="5.8"/><rect x="267.6" y="255.6" width="19.5" height="214.5" rx="9.8"/><rect x="298.6" y="199.3" width="19.5" height="231.8" rx="9.8"/><rect x="328.9" y="145.2" width="19.5" height="238.3" rx="9.8"/><rect x="360.0" y="88.8" width="19.5" height="236.9" rx="9.8"/><rect x="391.0" y="47.7" width="19.5" height="219.5" rx="9.8"/><rect x="421.4" y="17.3" width="19.5" height="197.1" rx="9.8"/><rect x="452.4" y="0.0" width="19.5" height="140.1" rx="9.8"/><rect x="482.8" y="23.8" width="19.5" height="58.5" rx="9.8"/></g></svg>